# File created by Blade
# Date/Time:  Tue Sep 30 19:15:05 2014
# Frame Rate: 120.000 fps
#------------------------------------------------------
:FULLY-SPECIFIED
:DEGREES
2889
root -1.378697 33.654432 -2.248595 31.486429 -11.443612 -22.072143
Spine -16.735825 8.904916 11.621663
Head -18.908675 -35.327059 22.845846
LeftShoulder 21.261248 10.187934 23.423730
LeftArm -26.892152 -25.038176 -69.841683
LeftForeArm -134.991531 -6.633888 6.587933
LeftHand -0.000065 31.325037 1.100865
LeftHandThumb1 30.357831 13.997178 22.438692
RightShoulder -8.027099 -24.737595 -21.227497
RightArm 21.922697 -13.526808 85.063533
RightForeArm 76.588351 -36.772239 8.123734
RightHand -0.000050 -9.910575 21.174542
RightHandThumb1 30.482666 -12.916435 -20.793814
LeftUpLeg -29.913617 10.027111 9.855177
LeftLeg 13.670500 -0.000000 0.000000
LeftFoot -16.642110 18.977084 -4.870122
LeftToeBase 3.193000 -0.000000 0.000000
RightUpLeg -16.945149 5.675045 -25.761823
RightLeg 95.890404 -0.000000 -0.000000
RightFoot 25.294617 -21.327081 -8.247424
RightToeBase 15.904600 -0.000000 -0.000000
2890
root -1.369697 33.655133 -2.243595 31.524331 -11.443058 -22.119427
Spine -16.725523 8.773723 11.630902
Head -19.097813 -36.509966 23.057213
LeftShoulder 21.305008 10.181148 23.486196
LeftArm -26.745765 -25.259675 -70.020832
LeftForeArm -135.006240 -5.973454 5.942537
LeftHand 0.000002 31.712374 1.539224
LeftHandThumb1 30.357831 13.997178 22.438692
RightShoulder -8.060853 -24.825268 -21.149767
RightArm 22.079668 -13.467570 85.226459
RightForeArm 76.458270 -36.794206 8.208568
RightHand 0.000016 -9.968490 20.881787
RightHandThumb1 30.482666 -12.916435 -20.793814
LeftUpLeg -29.905289 9.965844 9.912749
LeftLeg 13.649200 -0.000000 0.000000
LeftFoot -16.733891 19.168721 -4.844211
LeftToeBase 3.543200 -0.000000 -0.000000
RightUpLeg -16.986090 5.654159 -25.844984
RightLeg 95.866997 -0.000000 -0.000000
RightFoot 25.247370 -21.354928 -8.243230
RightToeBase 15.960800 0.000000 0.000000
2891
root -1.358997 33.658834 -2.242496 31.592376 -11.457737 -22.196032
Spine -16.732415 8.631093 11.698363
Head -19.251873 -37.685765 23.184472
LeftShoulder 21.168412 10.193992 23.480437
LeftArm -26.636575 -25.286853 -70.038548
LeftForeArm -134.998375 -5.806201 5.776290
LeftHand -0.000043 31.928161 1.625175
LeftHandThumb1 30.357831 13.997178 22.438692
RightShoulder -8.127796 -24.818189 -21.096546
RightArm 22.253479 -13.463421 85.376831
RightForeArm 76.445805 -36.717742 8.201839
RightHand 0.000016 -10.261589 20.699273
RightHandThumb1 30.482666 -12.916435 -20.793814
LeftUpLeg -29.926929 9.992385 9.961905
LeftLeg 13.609600 -0.000000 -0.000000
LeftFoot -16.700293 19.203323 -4.806865
LeftToeBase 3.506300 0.000000 0.000000
RightUpLeg -17.078261 5.716580 -25.878488
RightLeg 95.861801 -0.000000 -0.000000
RightFoot 25.219637 -21.355515 -8.195111
RightToeBase 16.012600 0.000000 0.000000
2892
root -1.344797 33.661531 -2.241296 31.639385 -11.491451 -22.236423
Spine -16.716313 8.484620 11.726404
Head -19.378811 -38.788405 23.299859
LeftShoulder 21.093085 10.191123 23.608250
LeftArm -26.317657 -25.311580 -70.300158
LeftForeArm -134.951586 -5.559073 5.523806
LeftHand -0.000074 31.846374 1.764347
LeftHandThumb1 30.357831 13.997178 22.438692
RightShoulder -8.173735 -24.814977 -21.018565
RightArm 22.388977 -13.423447 85.517162
RightForeArm 76.399842 -36.623817 8.212474
RightHand -0.000043 -10.244704 20.733097
RightHandThumb1 30.482666 -12.916435 -20.793814
LeftUpLeg -29.935888 10.040149 9.958074
LeftLeg 13.564400 -0.000000 -0.000000
LeftFoot -16.669739 19.147597 -4.871954
LeftToeBase 3.419000 -0.000000 -0.000000
RightUpLeg -17.171472 5.742368 -25.984713
RightLeg 95.870399 0.000000 0.000000
RightFoot 25.205670 -21.344662 -8.150914
RightToeBase 16.072201 -0.000000 -0.000000
2893
root -1.332397 33.664331 -2.239595 31.677989 -11.530645 -22.286340
Spine -16.703394 8.374358 11.779666
Head -19.507941 -39.828914 23.387821
LeftShoulder 20.980310 10.139315 23.655662
LeftArm -26.075574 -25.328720 -70.340220
LeftForeArm -134.910957 -4.985158 4.951059
LeftHand 0.000030 31.916004 1.970777
LeftHandThumb1 30.357831 13.997178 22.438692
RightShoulder -8.214815 -24.803148 -20.987669
RightArm 22.499596 -13.424688 85.685752
RightForeArm 76.376788 -36.560225 8.214614
RightHand -0.000011 -10.174101 20.944842
RightHandThumb1 30.482666 -12.916435 -20.793814
LeftUpLeg -29.928583 10.096623 9.965941
LeftLeg 13.499000 -0.000000 0.000000
LeftFoot -16.636729 19.043015 -5.031558
LeftToeBase 3.228400 -0.000000 -0.000000
RightUpLeg -17.260332 5.720344 -26.111139
RightLeg 95.895500 -0.000000 -0.000000
RightFoot 25.221353 -21.275869 -8.173888
RightToeBase 15.998700 -0.000000 -0.000000
2894
root -1.318197 33.666333 -2.237196 31.716559 -11.568491 -22.336284
Spine -16.693066 8.283938 11.851876
Head -19.563589 -40.778600 23.382620
LeftShoulder 20.736111 10.045864 23.618073
LeftArm -25.938913 -25.248249 -70.219443
LeftForeArm -134.912837 -4.399137 4.372954
LeftHand 0.000038 32.441767 2.359363
LeftHandThumb1 30.357831 13.997178 22.438692
RightShoulder -8.255477 -24.795185 -20.960616
RightArm 22.573862 -13.430592 85.854327
RightForeArm 76.332716 -36.701150 8.268778
RightHand -0.000019 -10.133807 20.631273
RightHandThumb1 30.482666 -12.916435 -20.793814
LeftUpLeg -29.930222 10.131462 9.972200
LeftLeg 13.485900 -0.000000 -0.000000
LeftFoot -16.652586 19.141804 -4.930270
LeftToeBase 3.448100 -0.000000 -0.000000
RightUpLeg -17.347419 5.718419 -26.223068
RightLeg 95.923302 0.000000 0.000000
RightFoot 25.265374 -21.218084 -8.178580
RightToeBase 15.825000 -0.000000 -0.000000
